<svg id="b0a686c2-f27f-4081-aaf0-60e303a5d9f8" data-name="Layer 1" xmlns="http://www.w3.org/2000/svg" xmlns:xlink="http://www.w3.org/1999/xlink" viewBox="0 0 493.07 500.93"><defs><radialGradient id="a85f48c9-f74f-427f-ae90-91ccd4c6ab63" cx="246.31" cy="247.92" r="190.82" gradientUnits="userSpaceOnUse"><stop offset="0.03" stop-color="#f2f2f2"/><stop offset="0.59" stop-color="#eee"/><stop offset="1" stop-color="#e6e6e6"/></radialGradient></defs><circle cx="246.31" cy="247.92" r="190.82" stroke="#147966" stroke-miterlimit="10" stroke-width="2" fill="url(#a85f48c9-f74f-427f-ae90-91ccd4c6ab63)"/><path d="M382.52,364.6c-3.08,1.64-3,.84-3.52,4.32-.37,2.35.41,6.43-3.07,6.33-.91,2.25-2.49,8-.94,9.61,1.15-.88,2.31-.08,3.33,1.16,1.25-1.58,2.17-4,3.74-5.11.77-3.53,2.48-6.2,4.2-9l.19-.28c.48-.77,1-1.55,1.56-2.33,2.1-2.91,5.35-10.91,3.83-14.07C388.64,358.42,386.57,362.45,382.52,364.6Z" transform="translate(-7.96 -6.04)" fill="#fff" stroke="#1b896c" stroke-miterlimit="10"/><path d="M287,141.33c.85-3.46-3.15-3.13-2.74-6.9-.49-.17-.36,0-.8-.4-1.05.82-1.61.93-2.05,2.44a4.3,4.3,0,0,0-1.55.81,23.3,23.3,0,0,1-8.18-3.65c.4,1.8-.14,3.12-1.87,3.45a3.52,3.52,0,0,0,.39,1.84,12.78,12.78,0,0,0,1.9-.78c.52.58,1.55.85,2,1.22h0c.61,1.22,1.1,2.74,0,3.91,1.25,2,2.75,3.31,5.11,3.52.37-.34.86-.68,1.19-1,2.32,1.81,2.33-.44,3.62-1.4C284.61,143.84,286.69,142.36,287,141.33Z" transform="translate(-7.96 -6.04)" fill="#fff" stroke="#1b896c" stroke-miterlimit="10"/><path d="M300,184.27a3.59,3.59,0,0,0,.35.49c.34-.35,1.08-.65,1.46-1,.25,1.93-2.18,2.61-.71,4.44a6,6,0,0,0-.52,2c2.07.37,1.4-1.47,2.63-2s1.95.9,3.3-.09a4.16,4.16,0,0,0,.32-1.68c-.81-1.28-1.59-5.17.73-5.65-.18-.19-.3-.63-.49-.88a4.84,4.84,0,0,1-.85,0,8.06,8.06,0,0,1-.95-2.39,4.86,4.86,0,0,0-2.32.45,1.76,1.76,0,0,1-.35,2,2,2,0,0,0,.26.54,5.7,5.7,0,0,1-.71,0c-.75,0-1.5-.17-2.34-.14C300,181.86,301.39,183,300,184.27Z" transform="translate(-7.96 -6.04)" fill="#fff" stroke="#1b896c" stroke-miterlimit="10"/><path d="M307.82,176.44a3,3,0,0,1,1,2.05c-.11.16-.35.66-.44.8,1.19-.88,2.35-.94,2.83.78,1.43-.15,1.6,2.34,1.52,3.53-1.36.14-2.17-1-3.29-.52-.11,1.62,2,1.1,1.84,2.82-.07,1-1.68,1.75-2.18,2.55a8,8,0,0,0,.53.76c1.47-.86,2.84-.2,2.32,1.69-.89.61-1.93,1-2.37,1.82s.14,2-.42,3c2.63-1.33,3.26-3.25,6.55-3.56.67,0,1.22.58,1.77.42.71-.2,1.21-1.22,1.82-1.53,1.19-.63,2.73,0,2.9-2-2.62-1.27-.53-2.45-.53-4.45a1.55,1.55,0,0,1-.74-.06,2.29,2.29,0,0,1-2,.62c-.91-1-.64-2.1-1.21-3-.7-1.14-1.94-1.14-2.1-2.49-.56-1.21-2.3-1.93-2.14-3.48a1.9,1.9,0,0,1-1.52-2.68v0a10.3,10.3,0,0,0,.73-4.35c-1.08-.18-3,.08-3.82-.8a7,7,0,0,0,1.54-2.78c-1.49.36-2.34,0-3.89,0a15.47,15.47,0,0,0-.31,4.32c0,1,.69,3.37-.24,4.13C307.83,173.66,308.77,175.09,307.82,176.44Z" transform="translate(-7.96 -6.04)" fill="#fff" stroke="#1b896c" stroke-miterlimit="10"/><path d="M439,238.36a184.33,184.33,0,0,0-48.83-109.27c-.76-.31-1.53-.61-2.24-1a183.87,183.87,0,0,1,50.67,118.14c0-.85.05-1.7.09-2.54C438.73,242,438.84,240.16,439,238.36Z" transform="translate(-7.96 -6.04)" fill="#fff" stroke="#1b896c" stroke-miterlimit="10"/><path d="M437.12,286.18c.57-3.39,1.05-6.82,1.43-10.27,0-3.21,0-6.4,0-9.61,0-.64,0-1.29,0-1.93A183.16,183.16,0,0,1,436.4,285,11,11,0,0,1,437.12,286.18Z" transform="translate(-7.96 -6.04)" fill="#fff" stroke="#1b896c" stroke-miterlimit="10"/><path d="M368,134.51c-.47,0-3.47,3.51-2.74,5.48-1.67.31-1.87,1.83-.66,3.3a13.31,13.31,0,0,0,.28,2.61c-3.06-3.21-4.72-6.74-7.63-9.42a4.07,4.07,0,0,1-1.57-1.27,14,14,0,0,1,1.57,1.27c1.55.66,3.12-.25,4.86.11,2.44-2.71-8.12-11.75-11-11.48-.91-.87-1.5-1-1.83-2.42-4.33.3-6.72-2.51-9.72-4.7-1.64-1.21-8.55-5.67-7.63.06-.78-.25-1.46,0-2.18-.17a15.24,15.24,0,0,0-1.3,1.49c.08.36.36.47.49.81-2.63,2.15-.55,6.13-2.45,8.17,1.45,3.71.29,8.62-1.16,12.18,3.59,5-4.32,8.24-3.91,12.93.34,4,3.08,10.86,5.91,13.75a4.36,4.36,0,0,0,2.41-3.1c2.41.23,2.16,4.68,5,3.49,1.7,3.53,3.75,7.35,1.21,10.88,4.39-.76,5.5-4.77,8.9-6.27-.16-4.27-4.61-3.56-1.93-8.17,1.46-2.5,3.91-5.09-.73-5.83-.43.22-.9.41-1.3.57-.85-.89-2.23-2.23-2.29-3.34s1.47-2.09,1.53-2.83c.11-1.29-.39-2.39-.31-3.27.17-1.75,1-4,1.07-6.17,0-1.28-.19-4.26.78-4.93.34.56,1,1.11,1.28,1.56.41-.28,1.15-.53,1.48-.78a2.09,2.09,0,0,0,.48.69c.4,0,.35-.3.69-.29,2.45,2.57-1.45,5.82-1.49,8.18,0,2.53,2.2,4.06.87,7,1.47,1.64,2.1,5.34,4.54,4.82.2.78,1,1.43,1.27,2,1.52-1.22,3.26-2.64,4.78-.89,2.4-1.19,4.35-.35,4.48,2.66-1.83-.3-3.78-1.63-5.45,0-1.05-.5-1.51-.06-2.56.31-.08,2.12,2.2,2.28,3.06,4.14s-.14,3.64.7,5.39c-.95-1.38-2.21-2.69-3-4-.48-.15-.58.28-.92.45-.27-.25-.49-.8-1-.86-2.74,2.4,2.64,4.12.25,7.66.65,1.33.27,2.15-.83,3-1.88.45-1,3.07-1.17,4.84-.75-2.94-3.2-3.87-5.67-3.3-1.38.31-1.46,1.48-2.86,1.55-1,0-2.38-1-3.63-1.13a16.37,16.37,0,0,0-2.13-2.62,9.09,9.09,0,0,0-.83-.72c1-3-1.38-7.19-4.28-7.43-.91,1.65.2,3.29-.82,4.46a8.33,8.33,0,0,1,2.35,3.28,1.86,1.86,0,0,1,.51,2.9c1.19,1.27.78,1.58-.25,2.47-2.71-1.4-4.27,1.7-5.49,3.94a1,1,0,0,0-.63-.17c-1.16,2.57-.76,4.4-2.91,6.31-1.91,1.7-4.42,2.53-4.29,5.61-2.26-.42-5.25-1.43-5.88,1.16a4,4,0,0,0-2.88.66c3.8,2.63,10.1,5,5.28,10.48a6.22,6.22,0,0,1,1.92,6.13c-4.48-2.73-9.54-2.88-14.33-1.65-1.76,2.4,4.45,6.15,0,7,0,2.07.44,3.84.22,5.92-.19,1.79-.91,3.65-.23,6,1.22,0,4.15-2,5-1.44,1.82,1.14.33,4.05-.12,5.45-.83,2.63-2.45,4.62-3.86,7a3.37,3.37,0,0,1,.17.8l-.11,0c.57,4.35-1.42,3-3.66,4.54-1.73,1.18-2.56,3.39-3.09,5.52a5.26,5.26,0,0,0-2,2.74,13.25,13.25,0,0,1-1.41-.18c-3,4.33-8.24,10.79-7.82,15.52.07.68,1.46.4,1.51,1.25s-.71,1.56-.82,2.34c-.26,1.88-1.47,3.4-1.49,5.42,0,1.05,1.32.69,1.1,2.07-.09.69-1,.83-1.08,1.22-.14,1.3-.42,4.12-.93,5,1.09,2.12,1.07,5.57,2.69,7.2,1,1.06,2.25.31,3.33,1.38s.83,1.74,1.4,2.93c1.25,2.71,1.61,5.06,4.09,6.89.14,0,2.5.75,2.94.94,1.62.74,1.24,1.32,2.93,1.58,5.05.8,9.94-2,14.42-1.77,1.16.05,1.83.63,3.1.5s2.29-1.45,3.45-1.26c3.6.57,1,4.16,3.54,5.5,5.28-5.6,8.38,4.49,6.63,8.17-1.18,2.48-3.21,4.24-2.24,7.18s3.8,4.77,4.32,8.21c.38,2.49.85,7.07.38,9.4-.63,3.15-3.67,3.59-4.81,5.83-.79,1.54-.27,3.69-.66,5.19-.28,1.08-1.33,2-1.58,3.48-.65,3.84,1.06,8,1.53,11.8.55,4.51-.39,9.06-.06,13.57.22,2.86,2.19,3.45,2.84,6,.5,2-1.3,5.31-1.51,7.41a18.14,18.14,0,0,0,2.21,0c2.21-3.75,4.5-1.52,7.22-1.21,4.45.5,5.24-1.76,8.62-4.51s4-2.43,5.47-6.46a43.85,43.85,0,0,1,4.33-8.49c7.05,5.84,4.45-5.72,5.06-9.37.86-.64,1.33-1.66,2.3-2.42s1.74-.23,2.71-.84a25.1,25.1,0,0,0,5.89-5.42c2.78-3.31,4.36-7,2-11,2.38-4.23,2.22-9.66,3.83-14.11,2.15-5.91,10.33-8.39,13.67-13.83.63-1,0-2,.83-3,.34-.41,2.51-1.48,3-2a24.6,24.6,0,0,0,4.13-5c2.28-3.79,3.62-8.33,5-12-.18-.11-.4-.12-.44-.42-2.1-.22-6.49,5.55-8.7,2.24,0-.07-.42.22-.63,0,.36-3.07-2.88-3-.44-6.14-2.69-1.33-4-.11-6.4-2.85a10.92,10.92,0,0,1-3-7.15c0-3.95.89-4.34-.85-8.05a14.57,14.57,0,0,1-1.08-9.78c-3.37-2-.19-5.7-2.7-8.7a9.74,9.74,0,0,1,1-.81c.25,2.48,2.05,2,3.14,3.57,1.23,1.76,1.37,3.75,2.14,5.69,1.38,3.56,5.25,7.08,3.39,11.05,1.52,2.43,1.06,6.25,2,9,.86,2.56,1.6,5.94,3.14,7.87,1.09-.85,2.16-1.8,3.24-2.73,2,1.77,11.2-3.38,13.24-5.44,1.65-1.66,2.7-4.63,3.9-6.75,1-1.71,3.2-4.47,2.76-6.88-.59-.51-2.4-1.75-2.68-2.47-.81-2.12,1-4.06-.78-5.5-.68,2.1-2.92,2.11-3.72,4.49-4.13-.36-4.65-5.61-5.37-8.68a2.7,2.7,0,0,1-.86-4.18c-.44-2.35-3.4-2.88-1.91-4.84,2.16,1.3,3.05,3.46,5.82,3.44.77,1.93.07,4,1.23,5.83,1.36,2.1,3.19,1.46,5,2.43,3.29,1.74,6.07,3.43,9.5,5,1.25.58,4.24,1.29,4.81,1.87,1.14,1.16.73,5.09,1.55,6.66A52,52,0,0,0,436.4,285a183.16,183.16,0,0,0,2.14-20.58c0-5.88-.18-12,0-18.09a183.87,183.87,0,0,0-50.67-118.14C387,127.71,368.77,133.07,368,134.51Zm12.49,87.37c-1.52.23-1.37,2-2.62,2.38-1.05.32-1.71-1-3.2-.3s-.95,1.63-2.8,1.85c-1.3.14-2-.45-3.09-.22-.25,1.94,1.46,3.45.74,5.44.72.33,1.24.89,2.08.89,1,1.26.63,2.73,1.51,4.09.51.78,1.64,1.24,2.33,2a.66.66,0,0,0,.28,0c3.47-3,6.63,4.48,8.95-.84a10.52,10.52,0,0,1,.52,4.35c-.32,1.48-1.48,2.43-1.84,3.92-.53,2.22,0,8.07-3.87,6-.17,3.81-7.35-.37-9.18-.75-1.33-.27-3.21.36-4.39-.38s-1.58-2.44-2.74-3.3c-.19.36-1,.87-1.24,1.3a2.48,2.48,0,0,0-2.83-.5,10.24,10.24,0,0,1,0,3.86c-.65,1.89-.68,1.43-2.17,1.12-.28-.06-1.08-.77-1.49-.91-.7-.25-1.62.25-2.09.08a3.31,3.31,0,0,1-2.4-3.12,5,5,0,0,1-3.14-3.67,5.2,5.2,0,0,1-3,1c-1.61-1.36-1.36-2.48-3.93-2.88a1.64,1.64,0,0,1,.95-2.43,2.33,2.33,0,0,0-1-2.24c.61-1.44.35-3.9.49-5.46-3.62,1.79-7.41.76-11.17,1-2.12.16-3.69,1.27-5.77,2.07-1.77.69-3.46.91-5.2,2.38-.14-.13-.41-.38-.58-.52-2.13,2.56-9.86-1.13-6.27-3,1.13-.6,3.23.17,4.64-.27a4.36,4.36,0,0,1,1.08-2.24l.34-1c0,.23,0,.41,0,.6a8,8,0,0,1,2-1.67,1.74,1.74,0,0,1,.63-2.2,1,1,0,0,0,.42.13c.27-.76.38-1.88.6-2.57-.71-1.63,2.33-4,3.84-4.06a15.24,15.24,0,0,1,1.05-1.3c.69-1.33-1.56-6.35,1-4.69,1.22-2,4.2-.09,5.5,1.06l.09-.38c1.73.53,2.21-1.08,2.09-2.56.16-.08.5.07.67,0a2.58,2.58,0,0,1,2.16,0,10.19,10.19,0,0,0,.71,2.34c2.7.45,2.3,4.59,5.58,4.72-2.12,3.11,3.18,4.42,4.45,6.15-.64,1-.43,1.18,0,1.95-.58,3.33-6.77,1.92-6.08,3.9,2,.62,4.57,3,6.55,2.86a3.62,3.62,0,0,0-.69-2.33c.23.08.45.15.66.24a.63.63,0,0,1,.54-.21c0-2.82,4.5-4.18,1.67-6.47a1.79,1.79,0,0,0,.2-.63,5,5,0,0,0,2.6.85c.13-1.27-.5-1.94-1.07-3-.15-.28-1.31-2.57-1.5-2.74-.75-.71-2.24-.52-3.09-1s-.86-1.5-2.1-1.81c-.4-.93-1.19-1.55-1.56-2.39-.25-.6-.22-2.05-.57-2.56-.84-1.18-3.29-.87-2.05-3.08l.44.08a2.34,2.34,0,0,1,1.58-1.71,3,3,0,0,1,1.35.67,3.2,3.2,0,0,0-.1,2.65c1.24-.61,1.85.5,3,1-.19,3.23,3.26,4.42,4.87,6.56a2.25,2.25,0,0,1,2.44,1c-.58,1.27.38,5.44,1.57,6,.08.35.2.86.25,1.05.11,2.82-.85,3.14,1.24,5.16a38.11,38.11,0,0,1,3.92,4.56,3,3,0,0,0,.11-1.11,2.77,2.77,0,0,0,.95,0,8.23,8.23,0,0,1-.7-3c.83.2,1.24-.19,2-.15.55-2.06-2.34-3.86-.5-5.35-.41-.66-.62-1.47-1-2.12.71-1.19,1.76-.83,3-.92.58,0,.79.7,1.45.53a.66.66,0,0,0,.31-.16c.39-.29.48-.86.58-.89a13.22,13.22,0,0,0,2.62-.52c1.7-.86.81-1.22,1.2-3.21-6,0,1.82-11.72,1.41-13.52,0-.06.5.28.49.28a2.3,2.3,0,0,0-.24.94,4.59,4.59,0,0,1,3.28,2.23c1.8.09.12,3.25,1.33,4.45.64-1.38,1.57-2.6,3.38-2.1,1.92-2.07-1.42-2.89-2.32-4.34a3.83,3.83,0,0,1,.35-.47c2.13.91,4.12-1.44,5.91-2.48-.68.52-.49,1.77-.79,2.9-1.94.09-2.33,4.58-.51,4.79.65,3.27,4.46,4.91,6.31,7.13C392.79,228.18,382.8,221.5,380.45,221.88Z" transform="translate(-7.96 -6.04)" fill="#fff" stroke="#1b896c" stroke-miterlimit="10"/><path d="M155.79,99l-.55.1c-.56.35-1.1.71-1.65,1.07l.44.27c.86-.56,1.73-1.11,2.6-1.66C156.36,98.84,156.09,98.92,155.79,99Z" transform="translate(-7.96 -6.04)" fill="#fff" stroke="#1b896c" stroke-miterlimit="10"/><path d="M163.16,94.3c-.88.5-1.75,1-2.63,1.53a5.3,5.3,0,0,1-.49.72c-.08.1-.17.19-.25.28,1.36-.81,2.73-1.61,4.11-2.38A4.41,4.41,0,0,1,163.16,94.3Z" transform="translate(-7.96 -6.04)" fill="#fff" stroke="#1b896c" stroke-miterlimit="10"/><path d="M157.94,101.24a8.43,8.43,0,0,0,2.65-4.14,12.32,12.32,0,0,0,2-.33c.2,0,.86,0,1,0s.31-.4.79-.21c.21.42.24,1.42.62,1.72.67.52,1.39-.67,2-.16.26.24.11,1.85.31,2.3.47,1,1,.65,1.32-.53.15-.7-.38-1.83-.24-2.33.19-.7.94-1.1,1.33-1.5.66-.69,1.32-1,1.51-2s-.57-1.82-.16-2.53c-.6.79-1.28,2-2.27,2.12s-1.68-.61-2.7-.3c-.66.2-1.11.85-1.81,1a1.54,1.54,0,0,1-.42,0c-1.38.77-2.75,1.57-4.11,2.38a6.62,6.62,0,0,1-3.16,1.93c-.87.55-1.74,1.1-2.6,1.66C155.26,101.16,156.72,102,157.94,101.24Z" transform="translate(-7.96 -6.04)" fill="#fff" stroke="#1b896c" stroke-miterlimit="10"/><path d="M142.85,107.88a.86.86,0,0,0,.41-.47q-6.51,4.92-12.57,10.39h.09a1.48,1.48,0,0,1,0,.42q5.77-5.2,12-9.91A3,3,0,0,1,142.85,107.88Z" transform="translate(-7.96 -6.04)" fill="#fff" stroke="#1b896c" stroke-miterlimit="10"/><path d="M130.78,119.1a2,2,0,0,0,.18,1.3c.67.07,3.51-.34,2.77,1-.22.39-.88.41-1.19.63s-.57.66-.93.86a6.92,6.92,0,0,1-2.61.56c-.14.73-1,.88-1.18,1.52-.27.87.61,1.33,1.46,1.45a6.51,6.51,0,0,0,2.49-.1c.36,1-.63,1.41-1.07,2-.59.86-.36,1,.19,1.58l.1,0s0,0,0,.05a2.44,2.44,0,0,1,.26.28.43.43,0,0,0,.08-.33,7.81,7.81,0,0,0,2.32.06.51.51,0,0,0,.19.3,5.18,5.18,0,0,1,2.63-.52l.09-.28a.91.91,0,0,0,.8-.53c.63.08,1.38-.68,1.71-1,.16-.7,3.31-1.73,3.78-.69.08-.09.39-.15.53-.39.11.1.25.13.39.25a3.1,3.1,0,0,1,2.67-.08c.84.27,1.71,1.1,2.55.93.13-.3.28-.25.38-.55a1.94,1.94,0,0,0,.42,0c.34-1.17-.74-2.16-.42-3.39.87,0,1.64.28,2.49.29,1.17,0,2.57-1.71.63-1.75-.19-1.43-.15-1.82-1.57-2.37a2,2,0,0,0,.28-1.3c-.06-.66-.31-1.11-.31-1.77a3.94,3.94,0,0,1,.83-2.74c1.25-.24,1-2,1.45-2.07.24-1.16.26-2.51,1.3-3.14.47-1.08,1.68-1.86,1.34-3.24a.65.65,0,0,0-.68,0c-.25.21-.34.67-.66.9-.5.39-1.12.34-1.5.88-1-1-1.64.77-2.16,1.28-.69.68-1.9.75-2.48,1.56s-.33,2.18-.89,3.14c-.72,1.19-1.68.79-1.57-.48-.26,0-.69-.12-1-.1a3.08,3.08,0,0,1-.25-1l0,0a2.84,2.84,0,0,0-1.82.24,1.46,1.46,0,0,1-.37-.46c-.35-.64-.46-1.63.28-1.71.1-.62,0-1.32.06-2q-6.21,4.71-12,9.91a2.28,2.28,0,0,1-.24.8C130.61,119.12,130.69,119.17,130.78,119.1Z" transform="translate(-7.96 -6.04)" fill="#fff" stroke="#1b896c" stroke-miterlimit="10"/><path d="M203.44,77.5a.61.61,0,0,1,.14-.14s0-.08,0-.11c-4.86,1.39-9.64,3-14.34,4.76a.42.42,0,0,0,.28.27,1.59,1.59,0,0,1-.15.29c4.43-1.66,9-3.16,13.53-4.49C203.12,77.87,203.29,77.66,203.44,77.5Z" transform="translate(-7.96 -6.04)" fill="#fff" stroke="#1b896c" stroke-miterlimit="10"/><path d="M188.29,84.8a5.86,5.86,0,0,0,1.25,1.41,1.5,1.5,0,0,1-1,1.46c-.73.09-.81-.91-1.52-.75-1,.23-.29,1.6-.61,2s-.75.16-1.08.5a4.23,4.23,0,0,0-.48,1c-1.35.07-.85-.73-1.85.23a2.81,2.81,0,0,1-1.26.84c-.73.22-1.2-.09-2,.06s-.84.57-1.58.21c-1.05-.54-1.22-1.85-2.6-1.79-.24,0-.22.45-.57.44s-.65-.53-1.06-.5-.88.35-.77.64a.49.49,0,0,0,.25.27c0,.58.66,1,1.07,1.33-.54.39,0,1,.25,1.3,0,.72,1.56,1.14,2.08,1l.28.27c-.4,1.24-.8,1.08-1.8,1-.23,1.08-1.45,1.25-2.35,1.31-.28.86-.63.85-.31,1.77s.39.91,1.3,1.32,1.83.19,2.54,1.19c1.69-.86,1.69,1.76,2.44,2.33-.48.8-.28,1.09.2,1.9-.48.25-.64.71-.21,1a1.37,1.37,0,0,0,.26.53c0,.51,1.07,2.26-.23,1.91.31-.2.3-.72.18-1.21-.7,0-1.16-.68-1.31-1.3-1.1-.33-1.69,2.07-2,2.64a7.31,7.31,0,0,0-1.38,2.74c-.08.53.24,1.3,0,1.94a7.1,7.1,0,0,1-1.05,1.71c-.37.48-1.7,1.88-.14,1.74.21.61.21,1.08.87,1.39a5.47,5.47,0,0,0-.36.86,1.8,1.8,0,0,0,.39.39,8.89,8.89,0,0,1,2.22.26,22.45,22.45,0,0,0,2.87.17c.58.27.67.68,1,.94a1.73,1.73,0,0,0,1,.31,1,1,0,0,1,.31.07c.75.25,1.44,1,2.24.87.13-.7.74-.48,1.18-.92a3.91,3.91,0,0,0,.76-1.54c1.88.22,2.15,2.78,2.61,4.2.5,1.59,1.53.77,2.36,2a9.17,9.17,0,0,1,1.25,2.93,6.63,6.63,0,0,1,.52,1.83c-.06.53-.5.88-.8,1.32-.63.94-.52,1.93-1.36,2.79-.57.56-2.12,1-2.37,1.88s.8,1.55.61,2.52a.14.14,0,0,0-.18-.13,2.14,2.14,0,0,0-.4,1,8.85,8.85,0,0,0-1.77-.23c-.69.07-.91.51-1.63.73s-1.16-.22-1.83,0-.61.72-1.47.62c0,1.27-1.19,1.79,0,2.76.88.71,1.59.47,2.62.19,1.93-.52,2.62-.19,4,1.33a2.32,2.32,0,0,1,1.9,1.41c.21.8-.16,1.07.46,1.74a3.88,3.88,0,0,0,.77.5c.13.06.42-.09.53,0s.43.56.58.67a2.91,2.91,0,0,0,.84.43,6.22,6.22,0,0,1,2.56,1.51c.07.4,1.46,1.24,1.9,1.46a2,2,0,0,0,.83.17,8.33,8.33,0,0,1,1.66,0c0-.69-1.05-1.09-1.52-1.52-.86-.78-.65-1.16-.83-2.25A5.28,5.28,0,0,1,195,148c-.14-.4,0-1.11.46-1.22.34-.07.67.48.92.62s.49.3.78.46a7,7,0,0,1,.77.23c.77.44.64,1.6,1.52,1.57.27.5,1.27.34,1.84.67s.86,1.15,1.5,1.2c.22-.78-.89-1.72.27-2.1a3.82,3.82,0,0,1,.11-.55c.18-.07.2-.18.4-.29a5,5,0,0,0-.51-1.86c-.44-.57-.83-.16-.94-1.1-.08-.58.22-1.16,0-1.85a4.67,4.67,0,0,1-.53-1.28c-.1-.55.2-1.33-.05-1.85s-1.19-.57-1.55-1c-.55-.7-.38-2.89.3-3.41.37.41.42,1,.72,1.47.61-.14,1.56-.3,1.89.21a7.3,7.3,0,0,0,2,4.51,1.33,1.33,0,0,1,.52-.57c.22-.34.71-.55.8-.9.14-.55-.45-1.06-.24-1.6.3-.71,1.2-.3,1.65-1.16,1.1-.47,1.63-2.32,2.77-2.34a3.69,3.69,0,0,0-.4-2c-.52-.66-1-.19-1.58-.52a5.64,5.64,0,0,1-1.05-1.3c-.21-.32-.15-.74-.52-1s-.46-.05-.85-.19-.47.22-1-.33a2.68,2.68,0,0,1-.52-.77c-.31-.67-.23-1.3-.76-1.91-.93-1.06-2.15-.85-1.26-2.69a1.94,1.94,0,0,1,1.46-.23c-.27-.31-.36-.64,0-.78-.13-.45-.52-.88-.42-1.33a4.16,4.16,0,0,0,.42-2.43c-.59-.06-.88-.55-1.47-.61a2.47,2.47,0,0,0-.52-1.57c-.53-.88-.5-.34-1.3-.78-.47-.25-.58-.53-1-.69a3.62,3.62,0,0,1-.85,0,2.46,2.46,0,0,0-.75-.1,2.28,2.28,0,0,0-1.34-2.32c-.46-.22-1-.53-1.39-.72s-.44-.42-.92-.36c-.19-1.08-.32-1.86-.57-2.84-.19-.75-.08-1.75-1.21-1.81.49-.6.88-1.37.38-2.06a10.31,10.31,0,0,0-2.29-1.11c-.92-.14-2.3.38-3.16,0-.47-.19-.5-.72-1-.77s-1,.72-1.58.77-1.51-.67-2.31-.56c-.18-1,1.08-1.61,2-1.65.24-1,2.64-1.23,3.4-1.3-.07-1.66,1.16-1.3,2.34-1.25.36-.19.34-.35.8-.38.17-1-.27-1.55-.25-2.41-.57.09-1.32.45-2,.17-.83-.33-.88-.77-1.88-.67s-2.63.08-3.17-1.12a10.21,10.21,0,0,1,1.8-1.65,3.59,3.59,0,0,1,.11-.57c.14,0,.27,0,.41,0s.08-.19.11-.28c.28,0,.41-.2.67-.25.38-.45,1-.88,1.16-1.58.46-.16.58-.44.79-.85.3,0,.69,0,1,.05,0,.3.35.5.45.78.34,0,.59.1.84,0a1.91,1.91,0,0,0,.47.31c.12-.72.94-.55,1.43-.77a7.44,7.44,0,0,0,1.19-.81,3.82,3.82,0,0,0,.11-.57.91.91,0,0,1,.93-.48c0-.09.07-.19.12-.29a6.19,6.19,0,0,1,1.71-.48,2.29,2.29,0,0,0,0-1,1.08,1.08,0,0,1,.09-.63c.1-.18.6-.55.77-.8a4.85,4.85,0,0,1,.86,0,.73.73,0,0,0-.09-.34c.22-.1.19-.15.42-.16.16-.54.47-.61.88-.73a.75.75,0,0,0,0-.37c.14,0,.28,0,.42.05.2-.38.78-1,1.27-.8-.2-.33-.36-.9,0-1-.05-.42.11-.73.52-.78a3.71,3.71,0,0,0,.56-1v0a.41.41,0,0,1,0-.15.63.63,0,0,1,.09-.3,1.64,1.64,0,0,0-1-1.93,2.13,2.13,0,0,0,1-.81c-4.58,1.33-9.1,2.83-13.53,4.49C188.91,83.35,187.93,83.73,188.29,84.8Z" transform="translate(-7.96 -6.04)" fill="#fff" stroke="#1b896c" stroke-miterlimit="10"/><path d="M263.47,71.08v0s0,0,0-.07l.42,0c.13-.24.26-.46.36-.67q-4.77-.26-9.59-.25a185.8,185.8,0,0,0-38.44,4c-.12.2-.23.42-.39.69a.21.21,0,0,1,0,.06,185.28,185.28,0,0,1,39.11-4Q259.21,70.87,263.47,71.08Z" transform="translate(-7.96 -6.04)" fill="#fff" stroke="#1b896c" stroke-miterlimit="10"/><path d="M211.48,79.3c-1,.41-1.11,1.37-2.1,1.85-.61.28-1.39.47-2.1.82a2.76,2.76,0,0,1-2.29.23,1.45,1.45,0,0,1-.54,1.07A1.84,1.84,0,0,0,206,84.38c.22.08.24.19.55.25-.06.42,0,.59.25.78-.23,1.07.52,2.53.78,3.54a9.65,9.65,0,0,1,.46,2.18,6.26,6.26,0,0,1-.42,1.24c.56.18,1.14-.08,1.53.49s-.06,1.72,1.22,1.47a17.53,17.53,0,0,0,1.87-1.5c.56-.65.33-1,1.08-1.42.23.22.31.14.52.27s.34.31.45.57a1.5,1.5,0,0,1,.8-.27c.11-.35.28-.25.38-.63a2.21,2.21,0,0,1,2.05,1.11A1.6,1.6,0,0,0,218.78,94c.11.14.13.21.27.27.19.66,0,2.35,1,2.08a.62.62,0,0,0,.19.3.38.38,0,0,1,.28-.11c.13.09.38.38.49.47a1.46,1.46,0,0,0-.39,2.08c.3.48.52.91.73,1.33a1.36,1.36,0,0,0,.54.63,1.08,1.08,0,0,0,.53,1,2.27,2.27,0,0,1-1.22,2,14.37,14.37,0,0,0,1,2.42c.13.55-.25.89-.76,1,.06.08.14.25.2.31-.83,1.46-.08,1.41.83,2.35a1.29,1.29,0,0,0,.52,1.3,2.33,2.33,0,0,1-.47,1.78c-.36.48-.82.42-1,1,1.23,1.3,1.29,2.72,2.51.72a3.15,3.15,0,0,1,2.1-1.73c0,1.11,0,1.35.85,2s.87.23.64,1.3c-.16.78-.93,2-.27,2.76.25.3,1.08.44,1.41.77-.28.69-.7,1.34-1,2-.14.3-.16,1-.39,1.19-.38.41-.58.11-1,.3-1.55.68-.87,2.69-2.81,3.2.05.64-.44.92-.58,1.51a5.89,5.89,0,0,0,0,1.57,3.83,3.83,0,0,0,.33,1.31c.21.38.92.24.69,1l-1.22.09c-.25,1.85-.14,3.48,1.27,4.51.06,1-.91,2.82.51,3.39a5.63,5.63,0,0,1,.72,2.5c0,.69-.4,1.4-.15,2.15.11.32.42.41.53.7a10.75,10.75,0,0,1,.27,1.35,5.35,5.35,0,0,0,.73,1.13c-.34,2,0,1.9,1,3.56a4.62,4.62,0,0,1,.59,1.57c.06.36.25.31.21.7,0,.14-.39.38-.42.58-.34,2.42,3.1,1.66,3.53,3.56.75-.07,2.1-.27,2.63.23s.05.91.31,1.58c.11.28.5.56.71.8.58-.17.75-.61,1.39-.56a6.94,6.94,0,0,0,.71,1.61,1.91,1.91,0,0,0,.33-.06c.11.14.48.49.51.53.13.27.33.38.47.6a1.29,1.29,0,0,1,.52-.83c.17-.85-.16-1.88,0-2.74s.89-1.62,1.13-2.51c.89-.44-.3-5,.65-5.44.18-1.08,1.1-1.53,1.38-2.5s-.15-1.56.25-2.34c.57-1.11,1.84-2,2-3.48s-1.44-1.92.13-3.13a3,3,0,0,1,3-.38c.34-.23.31-.26.78-.2a1.77,1.77,0,0,1,1.11-.8,1.25,1.25,0,0,0,1.24.55c.32-1,.8-1.31.9-2.38.86-.32,1.53-1.49,2.24-1.81.15-.69.65-1.14.62-1.92.58-.24.77-1.09,1.48-.93.31-.72-.94-2.55.25-2.9a2.32,2.32,0,0,1,1.56-1.09c.55-1.16,2.07-.71,3.14-.74a8.74,8.74,0,0,0,1.16-.06c.7-.09,1.13-.61,1.72-.71.31-.47.89-1.86,1.58-1.83.19-.41.24-.31.51-.54a3.82,3.82,0,0,1,2.08-1.56c.38-.47,1.54-1.29,1.65-2,.15-.93-.85-1.5-.35-2.62.39-.91,1.05-1.16.86-2.35-.14-.78-.53-1.53-.73-2.35a6.71,6.71,0,0,0-1.37-2.35,4.77,4.77,0,0,1-.52-2.87,4.53,4.53,0,0,0-.06-1.56c-.11-.29-.62-.61-.67-.83-.17-.78.31-.94.94-1.13,0-.08.08-.17.11-.27.42-.11.77-.41,1.19-.5.19-.64-.16-.91-.22-1.44a7.28,7.28,0,0,1,.22-1.43,2.07,2.07,0,0,0-1.72-2.28c-.15-.48.14-1,.26-1.42.33-.15.55-1.91.47-2.46a2.3,2.3,0,0,0-1.49-2.15c-1.11-.63-.65-1.07-.92-2.23a6.49,6.49,0,0,1-.46-2.67,3.64,3.64,0,0,0-.45-2.88,2.29,2.29,0,0,1-.27-2.25c.3-1.26-.36-1.57-1.17-2.38-.47-.48-1.46-1.34-.52-1.75a4.72,4.72,0,0,1,.78-1.81,5.72,5.72,0,0,1,.11-.57c.69-.59,1.52-1.39,1-2.41a.66.66,0,0,1-.27,0,1,1,0,0,0-.43,0c0-.21-.07-.61-.11-1v0a1.79,1.79,0,0,1-.43-1.37q-4.26-.21-8.55-.23a185.28,185.28,0,0,0-39.11,4c-.7,1.16-1.68,2.25-2.51,3.38C212.72,79,212.33,79,211.48,79.3Z" transform="translate(-7.96 -6.04)" fill="#fff" stroke="#1b896c" stroke-miterlimit="10"/><path d="M123.41,124.73a185.38,185.38,0,0,0-40.89,62.44,1.24,1.24,0,0,0,.14.18,184.68,184.68,0,0,1,40.88-62.23C123.5,125,123.46,124.85,123.41,124.73Z" transform="translate(-7.96 -6.04)" fill="#fff" stroke="#1b896c" stroke-miterlimit="10"/><path d="M82.93,187.6c.11-.2.22-.41.3-.59a2.07,2.07,0,0,0,.2.47c.3.54.8,1,1,1.56.69,1.53-.53,2.88-.14,4.59a4.56,4.56,0,0,1,.27,2.14c-.13,1,.18,1,.48,1.82.41,1.1,1.22,3.48,3,2.15.42.32.49.87.14,1.11-.11.74-.63.89-1.11,1.26-.33.23-.52.43-.78.59s-.79.22-.85.3c-.83,1,1.53,3.56.38,4.12,0,.7-.38,1.41-.38,2.11-.55.28-.06,2.29-.66,2.59a14.45,14.45,0,0,1-.38,1.85c-.75.39-1.15,2.05-1.3,2.88-.61.21-.51,1.72-1.22,2.27.8.75.43,1.43,0,2.29a3.7,3.7,0,0,0-.31,2.59,11.3,11.3,0,0,0,.5,2.89,7.86,7.86,0,0,1,.53,1c.13.49-.12,1.08,0,1.58a15.91,15.91,0,0,0,1,2.4c.29.82.59,1.52.86,2.29s.7,1.72,1,2.61c.27.68.13,2.33.58,2.83.32.35.69.28,1,.5a7.17,7.17,0,0,1,1,.86,3.23,3.23,0,0,1,1.3,2.15,12,12,0,0,0,1.88,4.57c1.18,1.5.56,3.82,1.44,5.56a20.33,20.33,0,0,1,1.07,2.14,4.45,4.45,0,0,1,.31,1.23c0,.61-.42,1.22-.22,1.79A5.24,5.24,0,0,1,97.67,261c.32.75.39,2.29.9,2.94.34.43,1.59.85,2.11,1.27.28-1.46-1-1.78-1-3a2.8,2.8,0,0,1-.52-1.83c-.91-.46-1.42-2.12-1.31-3.14a2.17,2.17,0,0,1-.27-.51c-1-.76-.28-1.59-.78-2.36A3.88,3.88,0,0,1,95,250.73a4,4,0,0,1-1.07-1.57.9.9,0,0,1-.25-.52c-.76-.4.07-2,0-2.74s-1.14-2.07-.2-2.82a4.55,4.55,0,0,1,2.22,1.85c.65,1.25.13,1.72,1.85,1.82a6.5,6.5,0,0,1,0,1.92c-.36.22.19,1.92.37,2.47a8.3,8.3,0,0,0,1.59,2.8c.78,1,1.27,2,2,2.95s1.9,1,2.1,2.35c.17,1.08,0,2.08.25,3.13a2.26,2.26,0,0,0,.85,1.25c.58.55.38.39.72,1.1a5.37,5.37,0,0,0,2,1.9c.61.42,1,.47,1,1.23a5.92,5.92,0,0,1-.52,1.46c-.55.3.09.45.06.88a11.24,11.24,0,0,0-.28,1.32,3.1,3.1,0,0,0,1.79,2.16,9.5,9.5,0,0,1,2.35,1c.76.61,1.38,1.46,2.13,2a11.65,11.65,0,0,1,2.43,1.88c.37.45.36.94,1,1.19.46.17,1.15.14,1.57.25.91.24,1.71.61,2.55.85s1.88.92,2.88.79c.82-.1,1.31-1.15,2.07-1.33,1.26-.26,1.66,1.1,2.37,1.84s1.61.92,2.41,1.5a16.47,16.47,0,0,1,1.84,2.1,8.71,8.71,0,0,0,4.88,2.41c2,.3,2.7,2.67,3.59,4.25,1.26,2.21,3.89,3,5,5.47a3.27,3.27,0,0,0,3.13,2.37c.68.11.91-.11,1.63.39.46.32.82,1,1.37.93.84-.09.7-.9.95-1.43a3.32,3.32,0,0,0,.63-.77c.56-.35.58-.3,1.24-.24a4,4,0,0,1,2.8,2.17c1.27,2,3,4,1.3,6.51a8.8,8.8,0,0,0-.77,1.12,7.17,7.17,0,0,0-.53,1.84c-.33.18-.23.52,0,.84-.28.2-.52.23-.8.45-.1.08-.33,0-.53.19s-.11.39-.25.53c-.38.39-1.23.79-1.3,1.38-.46.26,0,.85.34,1.17a1.49,1.49,0,0,0-.59.93c-.6-.33-1.09.72-1.46,1-.43.81-1.13,2.82.4,3.07.11.74,0,1.52.1,2.26.7,0,2.46.2,2.25,1.25-.59-.17-2.2.14-2.35.75-.62.19-.56,1.39-.47,2,.16.9.71,1.09,1,1.88s-.22,1.63.25,2.31,1.13.53,1.71,1a3.71,3.71,0,0,1,1.17,1.9,11.2,11.2,0,0,0,1.12,2.08c.33.59.47,1.29.83,1.83a6.45,6.45,0,0,1,1.19,1.84c.25,1,.06,1.36.78,2.15.49.53,1.07.82,1.55,1.3a13.51,13.51,0,0,1,2.23,3.25c.27.58.41,1.07.72,1.65.49.89.85.83,1.58,1.3,1.22.79,1.26,2.6,3.07,2.93.18,1,1.09.75,1.68,1.19s.83,1.6,1.49,1.85.84-.28,1.27-.17.81.75,1,1.06a8.19,8.19,0,0,1,.91,2.49c.47,1.54.28,3.14.47,4.74.13,1-.16,2.13,0,3.14.07.59.69,1.84-.21,1.95.1,1,1,2.43,1.32,3.54a12.36,12.36,0,0,1,.2,4.7c-.12.71-.41.71-.53,1.3a4.89,4.89,0,0,0,.33,2,12.26,12.26,0,0,1,.67,4.39l-.37.11c1,.81,2,1.06,2,2.61a22.12,22.12,0,0,1-.33,4.31,5.86,5.86,0,0,0-.28,1.24c0,.61.17,1.32.18,2,.07,2.39,1.92,3.75,2.26,6.07.09.58.11,1.13.22,1.7,0,.21-.28.26-.17.59,0,.15.34.21.4.37.43.9,1,1.68,1.32,2.62a9.52,9.52,0,0,1,.31,2.8,8.75,8.75,0,0,0,1.24,3.14c.33.67.63,2.08,1.18,2.57s1.55.58,2.22,1.16c1.4,1.2,1.87,3.08,2.68,4.64s1.46,3.39,2.66,4.7c.79.83,1.84.78,2.81,1.05a18.6,18.6,0,0,1,2.68,1.22,27.9,27.9,0,0,0,2.49,1.44c.85.28,1.77-.25,2.74.13.54.22,1,.42,1,1.08.83.29,1.8-.48,2.51-.82s1.74-.42,2.11-.92a3.91,3.91,0,0,1-3-.44,3.5,3.5,0,0,1-1.91-1.87,8.73,8.73,0,0,0-.5-1.81,4.88,4.88,0,0,1-2.89-1.82,1.7,1.7,0,0,1-1.11-.86c-.86.15-2.3-.69-2.27-1.76-.1.05-.17,0-.22-.11.17-.95,1.43-1.49,1.85-2.35.53-1.1.08-2.31-.13-3.37-.59.3-1.5-.06-1.5-.72-1.15-.53-3.5.13-3.14-2.33-.65-.38.87-2,1.1-2.67a8,8,0,0,0,.21-1.88c0-.63.4-1.38.26-2a5,5,0,0,1-1.8-2.7c.8,0,1.25.87,2.32.76a3.14,3.14,0,0,0,2.16-1.24c1.55-2.15-1.58-1.45-1.64-2.84-1.18-.59.45-1.14,1.05-1.16s1.7.28,2.13-.49a4.71,4.71,0,0,0,2.58,0,2,2,0,0,0,1-2c-.9-.69-.74-2.29-1.05-3.4-.38,0-.25-.14-.54-.25-.92-.12-1.63-1.47-2-2.22a9.87,9.87,0,0,1,2,.2,21.85,21.85,0,0,0,2.17.26c.26.05.47.35.7.35.53,0,.72-.41,1.12-.48,1.22-.27,1.17,0,2-.92,1.08-1.18.87-2.46,1.56-3.65.38-.62,1.08-1,1.51-1.5a6.69,6.69,0,0,0,.89-1.77c1.3,0,1.33-2.71,2-3.51.41-.5.71-.63.85-1.24a12,12,0,0,0,0-2.24c-.74-.36-.19-1.54.19-2,.53-.69,1.32-.72,1.9-1.23s.51-1.62,1.08-2c.34-.27,1.11,0,1.52-.05a3.57,3.57,0,0,0,1.3-.59c.58-.38,1.41-1.05,2.08-1,.47,0,.9.52,1.3.55.83.1,1-.34,1.6-.73,1-.6,1.43-.47,2-1.64a5.82,5.82,0,0,0,.89-2.81c.78-.08,1.66-2.2,1.85-2.9a17.91,17.91,0,0,0,.72-2.84,7.17,7.17,0,0,1,.31-2.08,3.52,3.52,0,0,0,.47-1.63c0-.77-.5-1.33-.53-2.09,0-1.37,1-2.57.83-3.89,2.95.09,3-3.08,4.4-4.46.94-.91,2-1.5,2.56-2.88.25-.57.14-1.24.37-1.82a10.47,10.47,0,0,0,1-2.51c-.35-.18-.57-1.33-.52-1.81a4,4,0,0,1-.8-.79c-.63,0-1.16-.83-1.36-1.39a.39.39,0,0,0-.28.11c-.15-.27-.38-.33-.52-.63-.82.3-1.62-1.05-2.09-1.55-1.09-.14-3.16-.83-3.58-2-.22.07-.36-.08-.6.05-.25-.3-.47-.55-.72-.82a2.17,2.17,0,0,1-.72,0c-.17,0-.22-.28-.39-.3s-.22.31-.46.3a8.53,8.53,0,0,1-1.89,0c-.38-.1-1-.86-1.49-1.06-.69-.31-2.07-1-2.85-.69a.56.56,0,0,1,0-.36c-.11-.08-.22-.1-.27-.27-.73-.08-1.41-1.08-2.1-1.42a6.7,6.7,0,0,0-3.46-.36c-.45-.56.22-.6.11-.93-.2-.55-.39-.55-.81-.8a18.76,18.76,0,0,0-1.9-.66c-.78-.36-3.32-1.31-3.06-2.36-.47-.24-.07-.52-.25-.9a5.5,5.5,0,0,0-.81-1.18c-.17-.23-.71-.16-.74-.57-.06-.64.55-.39.75-.8a3,3,0,0,0-1.27-3.45c.21-.2,0-.34.44-.45-.22-1-2.24-1.41-2.83-2.32-.39,0-.53-.2-.79-.5a3,3,0,0,0-1-.34c0,.12-.08.25-.11.35-.94-.31-1.69.1-2.56-.28a12.71,12.71,0,0,0-2.55-1.09,5.81,5.81,0,0,1-2.82-1c-.44-.36-1.3-1.09-1.15-1.81-.14-.08-.15-.16-.28-.27-.58,0-1.33-.69-1.88-1-1-.64-1.17-1.26-2-2.1a35.29,35.29,0,0,1-3.39-3.13,1.88,1.88,0,0,0-.73.27c0,.09-.07.19-.1.26-.78,0-.94.19-1.52,0s-1.11-.54-1.55-.69c-.75-.26-3.29-1.28-3.73-.34-.49.33-.67.17-1.19.06-.06,0-.53-.29-.66-.33a2,2,0,0,0-.77,0c-1.5,0-3.57.54-3.32-1.6-.61.1-1.05-.42-1.66-.21-.34-.68-1.32-.22-2-.1a1.89,1.89,0,0,1-.11.36c-.48-.11-1.13.36-1.44.25-.5-.16-.31-.91-1.08-.91.39-.6,2-1.25,1.8-2.25-.37-.11-.66-.36-1.11-.27s-1,.94-1.49,1.27-1.18.44-1.79.79a17.74,17.74,0,0,1-1.56,1.09,2.33,2.33,0,0,1-.11.28c-.83,0-1.68-.64-2.51-.89a6,6,0,0,1-.38.89c-.7.11-.55,2.28-.78,2.89-.19.05-.2.15-.39.21a2.55,2.55,0,0,0-.13.51c-.55,0-.72.42-1.06.86a.56.56,0,0,1-.19-.31c-.55-.1-1.3-.21-1.55-.79a17.76,17.76,0,0,0-1.91-.77.34.34,0,0,1-.19-.28c-.67,0-1.36,0-2,0q0,.17-.09.3c-.58-.33-.9.16-1.47.24l-.12.28a3.29,3.29,0,0,1-2.86-1.3c-.32-.32-.71-.57-1.05-.85a10,10,0,0,1-1.18-.86c-.69-.86-.17-1.74-.06-2.6a24.9,24.9,0,0,1,.19-2.89,4.29,4.29,0,0,0,.12-2.35c-.22-.95-1.33-4.89-2.61-4.84,0,.09-.08.19-.11.28-.19-.07-.51,0-.68-.09,0,.11-.08.23-.11.36-.3-.09-.26,0-.47-.3-.47-.09-.95-.42-1.36-.5-.61-.11-1.22.05-1.85,0a4.37,4.37,0,0,1-1.41-.39,3.51,3.51,0,0,1-1.71-1,1.61,1.61,0,0,1-.34,0,9.57,9.57,0,0,1,1-1.86c.16-.38.35-.38.45-.83s0-1.05,0-1.54a5.55,5.55,0,0,1,1.49-.34c.09-.7,0-1.46.06-2.2,0-.14-.35-.53-.33-.83,0-.47.47-1,.69-1.34.73-1.27.36-1.43.4-2.79a1.15,1.15,0,0,1-.57-.87,12.17,12.17,0,0,1-1.45-.17c-1,0-1.56.84-2.39.89a3.45,3.45,0,0,1,.2,1.21c-.61.05-.58.57-1,.82-.21.11-.74.09-1,.22a1.12,1.12,0,0,1-.79.64,9.4,9.4,0,0,0,.45,1.39c-.67.48-.64,1.16-1.47,1.37s-1.51-.72-1.95.28a1,1,0,0,0-1.05.45c-.67-.22-.75.32-1.25.33A4.25,4.25,0,0,1,128,275c-.12.35-.28.26-.37.65-.79-.38-1.88-.11-2.64-.94-1-1.1-1-2.73-1-4.14a6.32,6.32,0,0,1-2.37-5.08c-.09-2.16.74-4,.53-6.14,0-.55-.28-.64-.07-1.22s.58-.85.79-1.32c.38-.86,1-1.66,1.38-2.54.18-.44.07-1.14.24-1.58.27-.67.33-.58.85-1a9,9,0,0,1,2.82-2.11c1.17-.31,1.78.82,2.82.75.15,0,.78-.41,1.09-.47a5.17,5.17,0,0,1,1.57,0c1,.25,1.49.92,2.33,1.39,1.37.75,1.87-.42,2.57-1.39s.88-1.21,2.17-1c.45.06.72.39,1.3.3s1-.71,1.55-.82a2.94,2.94,0,0,1,2.62.53c.4.43.09.49.76.8a5.31,5.31,0,0,0,1.54.28c-.09.88.36,1,.88.77.86-.36,1-1.28,1.45.25s0,3.15.65,4.64c.2.47.56.89.78,1.37A16.23,16.23,0,0,1,153,259a5.45,5.45,0,0,0,1,2c.53.43,1.05,0,1.58.72a14.7,14.7,0,0,0,.45-8.19c-.3-1.38,0-3-.19-4.44a18.57,18.57,0,0,0-.73-2.14,4.58,4.58,0,0,1,.25-2.32c.64,0,.61-.49,1.06-.76a10.76,10.76,0,0,1,1.23-.59,7.16,7.16,0,0,0,3-2.55,4.93,4.93,0,0,1,2.28-1.62c.77-.33,2-1.14,2.8-.56a3.44,3.44,0,0,0,1.06-3.64c-.39-1.06-.55-1.22.55-2.11-.25-1.09-.63-1.44-.3-2.58.19-.65.68-.93.91-1.5a15,15,0,0,1,2.87-4.45,5.94,5.94,0,0,1,1.83-1,5.3,5.3,0,0,0,1.44-.89c.57-.42,1.13-.53,1.69-1,.32-.24.38-.61.71-.82s.69,0,1-.2c.12.2.43.34.53.46.39-.95.59-.76,1.38-1,.26-.09.53-.22.8-.34-.72-1.34.45-4,.83-5.3a11.83,11.83,0,0,1,2.22-1.55c0-.08.08-.19.11-.28a8.63,8.63,0,0,0,2-.43c.67-.25,1.66-1.25,2.37-.89.26-.78,1.91-1.77,2.46-2.07a.63.63,0,0,0,.4.1c.37-.3.85-.6,1.24-1a.78.78,0,0,1,.62-.78,2.88,2.88,0,0,1-.62.78,3.73,3.73,0,0,1-.12.48,4.64,4.64,0,0,1-.85,1.5c-.41.51-.64,1.12-1.05,1.64s-1.14.77-1.22,1.52a.8.8,0,0,0,1-.08c0-.09.08-.18.11-.28,1.3.15,1.71-.53,2.76-1,.61-1.37,2.27.11,3.13-.5.25-1.55,1.52-1.05,1.93-2.19a2.46,2.46,0,0,1,1.49.11.8.8,0,0,1,.09-.3c.55.08.88-.31,1.48-.25q0-.12.09-.27c.66-.18,1.08-.84,1.72-1a.88.88,0,0,0-.69-1.24c-.43-1.16,1.12-1.58,0-2.62-.9.67-1.35,1.73-2.35,2.4a1.63,1.63,0,0,1-1.84.33c-.39-.17-.64-.73-.81-.79-.91-.38-1.77.17-2.32-1.09-.22-.49-.2-.9-.45-1.4a10.46,10.46,0,0,1-.62-1c.3-.29.71-.89,1-1.14a3.35,3.35,0,0,0,.11-.55,4.23,4.23,0,0,0,1.21-3.46,3.89,3.89,0,0,1-.43-.11,4.09,4.09,0,0,1-.31-.89c-1,1-1.94.15-3.13.42a5.38,5.38,0,0,0-2.63,1.57c-1.84,1.67-4.27,2.9-6.32,4.46v.15a.24.24,0,0,1-.17,0l.17-.13c0-1.33,2.4-2,2.48-3.3.62-.24.69-1.18,1.44-1.29a2,2,0,0,1,1.83-1.08,1.4,1.4,0,0,1,.52-.74,2.36,2.36,0,0,0,.12-.28c.32-.19.32-.12.52-.53.39-.22.72-.64,1.19-.49a.73.73,0,0,0,.11-.29c.14,0,.28.08.41,0a2.52,2.52,0,0,0,.12-.29c.87.09,1.37-.54,2.25,0a1.54,1.54,0,0,1,.11-.3,18.23,18.23,0,0,0,1.95-.25c.74-.16,1.41-.68,2.09-.59a1.05,1.05,0,0,0,.8.6,2,2,0,0,1,.11-.28,8.47,8.47,0,0,1,2.08-.32,5.93,5.93,0,0,1,2,.6c0-.09.08-.18.11-.28.63-.09,1-.43,1.57-.52s1,0,1.45,0c-.12-1.36,1.74-2.12,2.6-2.55.69-.33.81-.6,1.63-.57.54,0,.62.48,1.26,0,0-.1.08-.19.11-.28.22,0,.47,0,.69,0a1,1,0,0,1-.17-1.07c.26-.14.23-.42.46-.64s.57-.24.71-.36a2.44,2.44,0,0,0,.91-1.88c2-.2-.64-1.8-1.3-2-.11-1.21-.88-1-1.63-1.58s-.77-1.31-.82-2.25c-.26,0-.69-.11-.95-.08.14-1.29-1-2.59-1.9-3.29-.75-.6-2-1.05-2.39-1.83-.29-.52,0-1.24-.38-1.71s-1,0-1.15-.94,1.09-3.43-.7-3.73a5.23,5.23,0,0,1-.31-2.56c0-.87.37-1.47.2-2.3-.24-1.08-.89-2.19-1.05-3.37a4.42,4.42,0,0,0-.67-2.3.31.31,0,0,0-.21,0c-1.09.52-1.3,4.69-3.21,4.57a7.7,7.7,0,0,1-2.12,4.36c-.84.57-.56-.05-1.3-.28s-1.36.28-2.05,0c-.31-1.05.35-2-.05-3.08-.21-.63-.72-.88-1-1.37-.19-.33-.06-.66-.33-1a.27.27,0,0,1,.25-.17c-.45-1.74.72-3.27,1.9-4.52-.52-1.56-3.51,1.07-4-1.25a3.25,3.25,0,0,0-.42-.11,4.33,4.33,0,0,0-2.19-2.77c-1-.44-2.89.06-3.14,1.2a6.1,6.1,0,0,1-4.07-1.44,7.76,7.76,0,0,0-.77,2.07,4.93,4.93,0,0,0-.26,2.51c.12,1.44-.48,2.93-.65,4.49a3.49,3.49,0,0,1-.8,2,13,13,0,0,1-1.11,1.33c-.11.09-.85.55-.88.61-.29.77,1,2.82,1.55,3.19-.09.83.32,1.07,0,1.92a8.93,8.93,0,0,1-.84,1.36,27.06,27.06,0,0,0-1.58,3.34c-.52,1.16-1.27,2.68-2.53,3.21-.48.19-1.17-.28-1.35.5-.1.44.55.78.62,1,.23,1.14-.71,2.07-.39,3.37s1,1.58.64,2.93c-.13.5-.13,1-.57,1.38-.66.51-.95.13-1.53,1-.72,1.08-1,2.41-1.63,3.52.2-1.72-.8-1.34-1.51-2.47a4.68,4.68,0,0,1-.51-2.74c.17-1.21-.24-1.32-.79-2.48a3.26,3.26,0,0,1,0-2.51c.5-.14.86-1.2,1.19-1.75a2.87,2.87,0,0,0,.55-2.24c-.58-.21-1,.29-1.53.48s-1.21,0-1.62.05c-.83.09-2.41.27-2.6-1a2.65,2.65,0,0,1-2.1-1.6c-1.57.67-1.39-.53-2.35-1.29-.66-.5-1.88-.59-2.55-1.14-.91-.75-.63-2.15-2.12-1.85-.89.19-1.42,1-2.47.41.53-.85-.77-4.25.09-4.62.25-1.09-.5-.74-1-.68a4.41,4.41,0,0,0-1.53.52c-.05-.44.09-.82.44-.91a13.42,13.42,0,0,1,.36-1.85c.44-.22-.05-.89.67-1,.82-.69.2-3.65,1.83-3.9.43-1.16,1.77-1.46,1.93-2.91,1.13-.13,1.33-2.81,2.26-2.85a2.49,2.49,0,0,0,.11-.29c.7,0,1.17-.47,1.71-1s.94-.65,1.47-1,3.41-2,.95-2.34c.35-.36,1.13-1.11,1.76-.85a1,1,0,0,1,.78-.25c0-.12.08-.24.11-.37a1.6,1.6,0,0,0,1.19-.16c.49-.84,1.6-.92,2.35-1.32a1.19,1.19,0,0,1,.11-.26l-.31-.12c.23-.13.3-.29.48-.4-.29-.48.13-.64.37-1.05.47-.81.58-.64-.07-1.36-.75-.87-2-1.82-1.52-3.18.85.11,1.38,1.14,2,1.71.5-.35.94.06,1.31.44a17.72,17.72,0,0,1,1-1.46c.56-.64,1.55-.61,1.42-1.65.38-.17.14-1,.74-1.42a2.3,2.3,0,0,1,1.3-.14c.08.07.2.2.28.26-.29,1.37.85,1.38,1.55.93s1-1.32,1.62-1.84A13.26,13.26,0,0,1,179.3,134c.37-1.37-.88-2.19-1.26-3.28s.25-1.59,1-2.22c.38-1.25.64-2.19,1.83-2.87a3.26,3.26,0,0,0-.4-2.3c-.27-.26-.43-.35-.54-.35s-.3.39-.83.43a12.79,12.79,0,0,1-2.1-.26c-.61-.09-1-.47-1.52-.51a3,3,0,0,1-1.34,2.94c-1.16.67-1.23,1.23-1.57,2.52-.46,1.69-1.32,4.6-3.09,5.47-.25-.72.3-1,.49-1.46s.17-1.07.31-1.54c.13.07.2,0,.23-.11-.5-.62-1.09-.47-1.08-1.58,0-.63.36-1.08.32-1.7.59-.27,0-1.45-.52-1.65-.25.81-.81,1.86-1.85,1.49-.06-.49,0-1-.08-1.48-.86-.17-1.16-1.42-2-.87a1,1,0,0,0-1.92.53c-1.21,0-1.18.78-2,1.41-.48.38-.67.11-1.06.7a9.87,9.87,0,0,0-.38,1.26,11.14,11.14,0,0,1-1.29,2.15c-.53.64-1.42.86-1.72,1.55a5.1,5.1,0,0,0-.61-2.35c.63-.37.23-1.7-.24-2.12-.48.83-1.56.91-2.16,1.8s-.65,1.23-1.71,1.69c-.58.25-.58.41-1.34.47a5.82,5.82,0,0,0-1.38.19c-1,.29-1.55.9-2.76.36-.77.9-1.24,1.37-2.19.5a4.69,4.69,0,0,1-1.3-3.12c-.3.87-1,.48-1.78.45-1.23-.07-1.17.18-1.83,1.1a8.31,8.31,0,0,1-1.24,1.57,7.2,7.2,0,0,1-.9.77c-.66.44-.51.27-1,.33a9.66,9.66,0,0,1-2.23-.27c-.13,0-.58,0-.85-.06s-.58-.27-1.06-.27c-.32,0-.6.29-1,.29s-.83-.33-1.32-.29c-.87.07-1.31.69-2.3.49a1.36,1.36,0,0,1,0-.89c.61-.16,1.25-.24,2-.49l.09-.26c.87-.08,1.41-1.37,1.23-2.13l-.1-.1a14.19,14.19,0,0,0-2.21-.78,27.37,27.37,0,0,1-2.86-.53,3.79,3.79,0,0,1-1.77-1.88,9,9,0,0,1-.51-1.65,184.68,184.68,0,0,0-40.88,62.23A.92.92,0,0,0,82.93,187.6Z" transform="translate(-7.96 -6.04)" fill="#fff" stroke="#1b896c" stroke-miterlimit="10"/><circle cx="246.31" cy="247.92" r="185.4" fill="none" stroke="#147966" stroke-miterlimit="10" stroke-width="4"/><path d="M186.59,221.1l168.22-24.86h.06a10,10,0,0,0,8.24-7.3l15.68-47.27a9.65,9.65,0,0,0,.37-2.69,10,10,0,0,0-10-9.92,6.13,6.13,0,0,0-.62,0q-.32,0-.63,0L207.38,152.85c-17.42,2.74-32.64,15.48-37.2,32.28l-13.25,48.46C158.8,226.76,164.79,225,186.59,221.1Zm-.85,16c-20.16,4.19-27.7,10.92-32.1,20.78a58.64,58.64,0,0,0-2.07,5.49l-11.58,41a63.07,63.07,0,0,1,20.87-7.08l.13,0,113.56-16.66C284.44,279,286.29,272,288.19,265l.42-1.58L300.54,220,189.12,236.5Zm-22.37,75.56c-22.72,3.69-30.17,18.72-32,23.31a31.51,31.51,0,0,0,25.92,42.44,51.37,51.37,0,0,0,15.09-.24l25.81-3.57a16.39,16.39,0,0,0,13.54-11.92L228,303.19Z" transform="translate(-7.96 -6.04)" fill="#147966" fill-rule="evenodd"/><path d="M27.06,194.2a12.31,12.31,0,0,0-5.89,3.85A15.12,15.12,0,0,0,18,204.9a16.09,16.09,0,0,0,.43,8.48,14.44,14.44,0,0,0,4.76,6.69,19.15,19.15,0,0,0,8.4,3.75,19.06,19.06,0,0,0,9.36-.21,14.5,14.5,0,0,0,7-4.42,16.86,16.86,0,0,0,3.74-7.95A14.76,14.76,0,0,0,50.54,201a15.11,15.11,0,0,0-7.7-6.67l-3.55,17.61-7.85-1.59L37,182.62,46,184.43a24.55,24.55,0,0,1,9,6.4A25.36,25.36,0,0,1,60.55,201a26.18,26.18,0,0,1,.34,12.48,27.45,27.45,0,0,1-6,12.71,24.82,24.82,0,0,1-11.18,7.52,27.18,27.18,0,0,1-14.19.69,27.4,27.4,0,0,1-12.84-6.14A24.75,24.75,0,0,1,9.22,217a29.16,29.16,0,0,1,6.6-28.17,22,22,0,0,1,13.62-6.42Z" transform="translate(-7.96 -6.04)" fill="#f2f2f2"/><path d="M65.46,170.33l7-15.71L80.08,158,68.77,183.29,21.08,162l4.28-9.56Z" transform="translate(-7.96 -6.04)" fill="#f2f2f2"/><path d="M85.78,143.11a25.69,25.69,0,0,1-13.47,2,26.69,26.69,0,0,1-13.2-5.42,26.51,26.51,0,0,1-8.82-11.12,25.66,25.66,0,0,1-1.79-13.51A28.1,28.1,0,0,1,64.7,93.54a25.51,25.51,0,0,1,13.43-2,28.44,28.44,0,0,1,22,16.54A25.42,25.42,0,0,1,102,121.57a28.12,28.12,0,0,1-16.18,21.54Zm6.65-22.25a14.61,14.61,0,0,0-1.51-8.15,20.15,20.15,0,0,0-6.15-7.14,19.79,19.79,0,0,0-8.54-3.89,14.52,14.52,0,0,0-8.19.87,16.18,16.18,0,0,0-6.67,5.39A16.45,16.45,0,0,0,58,115.86,14.29,14.29,0,0,0,59.47,124a19.75,19.75,0,0,0,6.11,7.12A20,20,0,0,0,74.16,135a14.48,14.48,0,0,0,8.27-.85,17.35,17.35,0,0,0,10-13.32Z" transform="translate(-7.96 -6.04)" fill="#f2f2f2"/><path d="M131.84,69a12.9,12.9,0,0,1,7.34,4.69,13.24,13.24,0,0,1,3,7.06,13.69,13.69,0,0,1-1.57,7.59,21.68,21.68,0,0,1-6.11,7.12l-17.66,14-32.42-41,16.9-13.37a22.26,22.26,0,0,1,8.26-4.34,13,13,0,0,1,7.55.13A12.57,12.57,0,0,1,123,55.17a11.88,11.88,0,0,1,2.83,7.49,13,13,0,0,1-2.38,7.42A11.77,11.77,0,0,1,131.84,69ZM106,78.92,113.49,73a8.79,8.79,0,0,0,3.47-4.9,5.92,5.92,0,0,0-1.41-5,6,6,0,0,0-4.61-2.56,8.64,8.64,0,0,0-5.58,2.23l-7.51,5.94Zm25.58,5.72a6.29,6.29,0,0,0-1.49-5.31,6.56,6.56,0,0,0-5-2.75,9.08,9.08,0,0,0-5.94,2.27L111,85.26l8.73,11L128,89.74A9,9,0,0,0,131.55,84.64Z" transform="translate(-7.96 -6.04)" fill="#f2f2f2"/><path d="M178.3,59.31l-19,8.54.95,10.49-10,4.52L145.9,27.44l11.13-5,38.6,40L185.53,67Zm-6-6.47L156.41,36l2.07,23Z" transform="translate(-7.96 -6.04)" fill="#f2f2f2"/><path d="M209.4,51.81l16.85-3.5,1.69,8.14-27.12,5.62-10.6-51.15,10.25-2.13Z" transform="translate(-7.96 -6.04)" fill="#f2f2f2"/><path d="M327.87,13.33,326,21.57l-21.21-4.93-3,13.05L318,33.47l-1.88,8.09-16.26-3.78-5,21.51-10.2-2.37L296.46,6Z" transform="translate(-7.96 -6.04)" fill="#f2f2f2"/><path d="M358.06,72.71l-18.52-9.48-7.6,7.29-9.79-5,40.56-38,10.86,5.56-7.12,55.13-9.86-5ZM359.35,64l3.23-22.89-16.68,16Z" transform="translate(-7.96 -6.04)" fill="#f2f2f2"/><path d="M415.94,102.42a12.9,12.9,0,0,1-3.44,8,13.22,13.22,0,0,1-6.49,4.06,13.66,13.66,0,0,1-7.75-.32,21.91,21.91,0,0,1-8-4.88L373.6,94.11,408.78,55.5,424.71,70a22.43,22.43,0,0,1,5.62,7.45,13.11,13.11,0,0,1,1.09,7.47,12.57,12.57,0,0,1-3.22,6.48,11.93,11.93,0,0,1-6.94,4,13.07,13.07,0,0,1-7.71-1.15A11.7,11.7,0,0,1,415.94,102.42Zm-15.44,2.23a6.27,6.27,0,0,0,5-2.33,6.55,6.55,0,0,0,1.89-5.41,9,9,0,0,0-3.19-5.49l-7.63-7-9.48,10.4,7.8,7.11A9,9,0,0,0,400.5,104.65ZM402,78.49l7.08,6.45a8.7,8.7,0,0,0,5.39,2.63,5.91,5.91,0,0,0,4.75-2.2,6.05,6.05,0,0,0,1.78-5,8.62,8.62,0,0,0-3.1-5.15l-7.08-6.45Z" transform="translate(-7.96 -6.04)" fill="#f2f2f2"/><path d="M424.31,151.52,435,130.73l-2.7-4.13-17,11.15L409.56,129l43.71-28.6L464,116.78a23,23,0,0,1,3.87,9.81,15,15,0,0,1-1.32,8.51,15.76,15.76,0,0,1-5.63,6.23,15.55,15.55,0,0,1-9.43,2.6,15.38,15.38,0,0,1-9.67-4.32L431,161.67Zm14.6-29.22,4.79,7.32q2.34,3.57,5.2,4.2a7.64,7.64,0,0,0,5.94-1.38,7.3,7.3,0,0,0,3.52-4.81q.51-2.84-1.82-6.41l-4.8-7.32Z" transform="translate(-7.96 -6.04)" fill="#f2f2f2"/><path d="M486.93,161.17l-48.19,20.15-4.05-9.66,48.2-20.16Z" transform="translate(-7.96 -6.04)" fill="#f2f2f2"/><path d="M483.43,185.53a24.9,24.9,0,0,1,11.13,7.53,26.9,26.9,0,0,1,5.9,12.62,26.51,26.51,0,0,1-1.5,15.91A23.4,23.4,0,0,1,488.51,233l-2.28-11.83a12.41,12.41,0,0,0,4.55-6,14.85,14.85,0,0,0,.41-7.74,15.55,15.55,0,0,0-3.63-7.57,14.58,14.58,0,0,0-7-4.29,19.83,19.83,0,0,0-9.34-.22A20.05,20.05,0,0,0,462.7,199a14.48,14.48,0,0,0-4.9,6.59,15.43,15.43,0,0,0-.56,8.38,14.61,14.61,0,0,0,3.3,7,12.69,12.69,0,0,0,6.51,3.89l2.28,11.83a23.35,23.35,0,0,1-14-6.64,28.64,28.64,0,0,1-6.51-28.16,24.9,24.9,0,0,1,7.5-11.13,29,29,0,0,1,27.08-5.23Z" transform="translate(-7.96 -6.04)" fill="#f2f2f2"/><path d="M65.28,354.69A23.81,23.81,0,0,1,78,357.19a26,26,0,0,1,10,9,25.61,25.61,0,0,1,4.64,14.66,22.59,22.59,0,0,1-5,14l-6.46-9.62a12,12,0,0,0,1.77-7.05,14.26,14.26,0,0,0-2.53-7,15,15,0,0,0-6.06-5.34,14,14,0,0,0-7.78-1.19,19.17,19.17,0,0,0-8.36,3.31,19.17,19.17,0,0,0-6.2,6.46,14,14,0,0,0-1.87,7.68,14.9,14.9,0,0,0,2.65,7.63,14,14,0,0,0,5.55,5,12.19,12.19,0,0,0,7.23,1L72,405.3a22.55,22.55,0,0,1-14.87-.64,25.72,25.72,0,0,1-11.81-9.9,26,26,0,0,1-4.52-12.61,23.92,23.92,0,0,1,2.47-12.67,26.17,26.17,0,0,1,9.13-10.17A26.41,26.41,0,0,1,65.28,354.69Z" transform="translate(-7.96 -6.04)" fill="#f2f2f2"/><path d="M82.18,434a24.6,24.6,0,0,1-1.11-13.06,27.05,27.05,0,0,1,17.27-20.09,24.57,24.57,0,0,1,13.08-.86,27.08,27.08,0,0,1,19.68,16.91,24.54,24.54,0,0,1,1.06,13A27.36,27.36,0,0,1,114.89,450a24.5,24.5,0,0,1-13.06.89A27,27,0,0,1,82.18,434Zm20.93,7.79a14.14,14.14,0,0,0,7.92-.93,19.31,19.31,0,0,0,7.25-5.45,19,19,0,0,0,4.27-8,13.87,13.87,0,0,0-.31-7.91,16.92,16.92,0,0,0-12.15-10.44,13.75,13.75,0,0,0-7.9.85A19,19,0,0,0,95,415.36a19.22,19.22,0,0,0-4.3,8,14,14,0,0,0,.29,8,15.65,15.65,0,0,0,4.75,6.79A15.44,15.44,0,0,0,103.11,441.78Z" transform="translate(-7.96 -6.04)" fill="#f2f2f2"/><path d="M197.13,448.91l-20.56,45.86-9.2-4.12,13.37-29.83-25.65,24.32-7-3.12,1-35.37-13.38,29.83-9.2-4.13,20.57-45.85,10.44,4.68-.7,40.64,29.87-27.56Z" transform="translate(-7.96 -6.04)" fill="#f2f2f2"/><path d="M259.3,457,253.79,507l-10-1.1,3.58-32.49-17,31-7.58-.84-9.88-34-3.58,32.49-10-1.11L204.84,451l11.38,1.25L228,491.16l20-35.4Z" transform="translate(-7.96 -6.04)" fill="#f2f2f2"/><path d="M277.3,454.14l5.12,30.68q.84,5,3.91,7.27t7.83,1.43q4.83-.81,7-3.91t1.35-8.14l-5.12-30.68,10-1.67,5.11,30.61a20.12,20.12,0,0,1-.95,11.14,17.66,17.66,0,0,1-6.22,7.79,23.48,23.48,0,0,1-9.83,3.9,22.92,22.92,0,0,1-10.41-.52,17,17,0,0,1-8.23-5.38,20.63,20.63,0,0,1-4.41-10.25l-5.11-30.61Z" transform="translate(-7.96 -6.04)" fill="#f2f2f2"/><path d="M374.82,475.77l-9.23,4-34.72-22.46,13.81,31.6-9.24,4-20.15-46.12,9.24-4,34.75,22.53-13.84-31.67,9.24-4Z" transform="translate(-7.96 -6.04)" fill="#f2f2f2"/><path d="M370.27,418.54l27.9,41.8-8.38,5.6-27.9-41.8Z" transform="translate(-7.96 -6.04)" fill="#f2f2f2"/><path d="M403.3,390.49l5.48,6-9.9,9,28.36,31.14-7.46,6.79-28.36-31.14-9.9,9-5.48-6Z" transform="translate(-7.96 -6.04)" fill="#f2f2f2"/><path d="M430.54,353.5l16.71,32.9,14.22,10.2-5.88,8.19-14.21-10.2-36.57-5.24,6.64-9.24,24.95,4.62L424,362.62Z" transform="translate(-7.96 -6.04)" fill="#f2f2f2"/></svg>